{
  "accessors": [
    {
      "bufferView": 2,
      "componentType": 5126,
      "count": 9273,
      "max": [
        11.643461227416992,
        34.980670928955078,
        42.048252105712891
      ],
      "min": [
        -11.643465042114258,
        -21.509342193603516,
        -9.9999999747524271e-07
      ],
      "type": "VEC3"
    },
    {
      "bufferView": 2,
      "byteOffset": 111276,
      "componentType": 5126,
      "count": 9273,
      "max": [
        0.9997832179069519,
        0.99981266260147095,
        0.99997776746749878
      ],
      "min": [
        -0.99978327751159668,
        -0.99931848049163818,
        -1
      ],
      "type": "VEC3"
    },
    {
      "bufferView": 3,
      "componentType": 5126,
      "count": 9273,
      "max": [
        0.99998301267623901,
        0.9984169602394104,
        0.99995946884155273,
        1
      ],
      "min": [
        -0.99994051456451416,
        -0.99975895881652832,
        -0.99986082315444946,
        -1
      ],
      "type": "VEC4"
    },
    {
      "bufferView": 1,
      "componentType": 5126,
      "count": 9273,
      "max": [
        0.787109375,
        0.787109375
      ],
      "min": [
        0.001953125,
        0.001953125
      ],
      "type": "VEC2"
    },
    {
      "bufferView": 1,
      "byteOffset": 74184,
      "componentType": 5126,
      "count": 9273,
      "max": [
        0.787109375,
        0.787109375
      ],
      "min": [
        0.001953125,
        0.001953125
      ],
      "type": "VEC2"
    },
    {
      "bufferView": 1,
      "byteOffset": 148368,
      "componentType": 5126,
      "count": 9273,
      "max": [
        0.787109375,
        0.787109375
      ],
      "min": [
        0.001953125,
        0.001953125
      ],
      "type": "VEC2"
    },
    {
      "bufferView": 0,
      "componentType": 5125,
      "count": 9546,
      "max": [
        9272
      ],
      "min": [
        0
      ],
      "type": "SCALAR"
    },
    {
      "bufferView": 2,
      "byteOffset": 222552,
      "componentType": 5126,
      "count": 1160,
      "max": [
        5.0004172325134277,
        -14.10710620880127,
        34.099170684814453
      ],
      "min": [
        -5.0004181861877441,
        -21.403602600097656,
        23.0350341796875
      ],
      "type": "VEC3"
    },
    {
      "bufferView": 2,
      "byteOffset": 236472,
      "componentType": 5126,
      "count": 1160,
      "max": [
        0.92807632684707642,
        -0.020984997972846031,
        0.99966722726821899
      ],
      "min": [
        -0.92807906866073608,
        -0.99306786060333252,
        -0.99895626306533813
      ],
      "type": "VEC3"
    },
    {
      "bufferView": 3,
      "byteOffset": 148368,
      "componentType": 5126,
      "count": 1160,
      "max": [
        0.99992769956588745,
        0.93709015846252441,
        0.590282142162323,
        1
      ],
      "min": [
        -0.4248214066028595,
        -0.93046468496322632,
        -0.65210956335067749,
        1
      ],
      "type": "VEC4"
    },
    {
      "bufferView": 1,
      "byteOffset": 222552,
      "componentType": 5126,
      "count": 1160,
      "max": [
        1,
        0.212890625
      ],
      "min": [
        0.7890625,
        0.001953125
      ],
      "type": "VEC2"
    },
    {
      "bufferView": 1,
      "byteOffset": 231832,
      "componentType": 5126,
      "count": 1160,
      "max": [
        1,
        0.212890625
      ],
      "min": [
        0.7890625,
        0.001953125
      ],
      "type": "VEC2"
    },
    {
      "bufferView": 1,
      "byteOffset": 241112,
      "componentType": 5126,
      "count": 1160,
      "max": [
        1,
        0.212890625
      ],
      "min": [
        0.7890625,
        0.001953125
      ],
      "type": "VEC2"
    },
    {
      "bufferView": 0,
      "byteOffset": 38184,
      "componentType": 5125,
      "count": 1164,
      "max": [
        1159
      ],
      "min": [
        0
      ],
      "type": "SCALAR"
    }
  ],
  "asset": {
    "extras": {
      "author": "hkgiao79 (https://sketchfab.com/hkgiao79)",
      "license": "CC-BY-4.0 (http://creativecommons.org/licenses/by/4.0/)",
      "source": "https://sketchfab.com/3d-models/umbreon-3d-render-9adc52f71a4c4e179737a6ebf34378e0",
      "title": "Umbreon 3D Render"
    },
    "generator": "Sketchfab-6.87.0",
    "version": "2.0"
  },
  "bufferViews": [
    {
      "buffer": 0,
      "byteLength": 42840,
      "byteOffset": 0,
      "name": "floatBufferViews",
      "target": 34963
    },
    {
      "buffer": 0,
      "byteLength": 250392,
      "byteOffset": 42840,
      "byteStride": 8,
      "name": "floatBufferViews",
      "target": 34962
    },
    {
      "buffer": 0,
      "byteLength": 250392,
      "byteOffset": 293232,
      "byteStride": 12,
      "name": "floatBufferViews",
      "target": 34962
    },
    {
      "buffer": 0,
      "byteLength": 166928,
      "byteOffset": 543624,
      "byteStride": 16,
      "name": "floatBufferViews",
      "target": 34962
    }
  ],
  "buffers": [
    {
      "byteLength": 710552,
      "uri": "scene.bin"
    }
  ],
  "extensionsRequired": [
    "KHR_materials_pbrSpecularGlossiness"
  ],
  "extensionsUsed": [
    "KHR_materials_pbrSpecularGlossiness"
  ],
  "images": [
    {
      "uri": "textures/material_0_diffuse.png"
    },
    {
      "uri": "textures/material_0_specularGlossiness.png"
    }
  ],
  "materials": [
    {
      "doubleSided": true,
      "emissiveFactor": [
        0,
        0,
        0
      ],
      "extensions": {
        "KHR_materials_pbrSpecularGlossiness": {
          "diffuseFactor": [
            1,
            1,
            1,
            1
          ],
          "diffuseTexture": {
            "index": 0,
            "texCoord": 0
          },
          "glossinessFactor": 1,
          "specularFactor": [
            1,
            1,
            1
          ],
          "specularGlossinessTexture": {
            "index": 1,
            "texCoord": 0
          }
        }
      },
      "name": "material_0"
    }
  ],
  "meshes": [
    {
      "primitives": [
        {
          "attributes": {
            "NORMAL": 1,
            "POSITION": 0,
            "TANGENT": 2,
            "TEXCOORD_0": 3,
            "TEXCOORD_1": 4,
            "TEXCOORD_2": 5
          },
          "indices": 6,
          "material": 0,
          "mode": 4
        }
      ]
    },
    {
      "primitives": [
        {
          "attributes": {
            "NORMAL": 8,
            "POSITION": 7,
            "TANGENT": 9,
            "TEXCOORD_0": 10,
            "TEXCOORD_1": 11,
            "TEXCOORD_2": 12
          },
          "indices": 13,
          "material": 0,
          "mode": 4
        }
      ]
    }
  ],
  "nodes": [
    {
      "children": [
        1
      ],
      "name": "RootNode (gltf orientation matrix)",
      "rotation": [
        -0.70710678118654746,
        -0,
        -0,
        0.70710678118654757
      ]
    },
    {
      "children": [
        2
      ],
      "name": "RootNode (model correction matrix)"
    },
    {
      "children": [
        3
      ],
      "name": "root"
    },
    {
      "children": [
        4
      ],
      "matrix": [
        1,
        0,
        0,
        0,
        0,
        2.2204460492503131e-16,
        1,
        0,
        0,
        -1,
        2.2204460492503131e-16,
        0,
        0,
        0,
        0,
        1
      ],
      "name": "GLTF_SceneRootNode"
    },
    {
      "children": [
        5
      ],
      "name": "root_0"
    },
    {
      "children": [
        6
      ],
      "matrix": [
        137.19136695783905,
        0,
        -86.70418549644117,
        0,
        0,
        162.29322814941406,
        0,
        0,
        86.70418549644117,
        0,
        137.19136695783905,
        0,
        -5.1682877710845787e-06,
        7.4505811242797648e-11,
        116.43316650390625,
        1
      ],
      "name": "node_id20_1"
    },
    {
      "children": [
        7,
        9
      ],
      "matrix": [
        1,
        0,
        0,
        0,
        0,
        1,
        0,
        0,
        0,
        0,
        1,
        0,
        4.8446654687950286e-08,
        -0.53401279449462891,
        0.17108587920665741,
        1
      ],
      "name": "node_id21_2"
    },
    {
      "children": [
        8
      ],
      "matrix": [
        0.025399999693036079,
        -0,
        0,
        0,
        0,
        4.2821195162909863e-09,
        -0.025399997830390566,
        0,
        0,
        0.025399997830390566,
        4.2821195162909863e-09,
        0,
        0,
        0,
        0,
        1
      ],
      "name": "_3"
    },
    {
      "mesh": 0,
      "name": ""
    },
    {
      "children": [
        10
      ],
      "matrix": [
        0.025399999693036079,
        -0,
        0,
        0,
        0,
        4.2821195162909863e-09,
        -0.025399997830390566,
        0,
        0,
        0.025399997830390566,
        4.2821195162909863e-09,
        0,
        0,
        0,
        0,
        1
      ],
      "name": "_4"
    },
    {
      "mesh": 1,
      "name": ""
    }
  ],
  "samplers": [
    {
      "magFilter": 9729,
      "minFilter": 9987,
      "wrapS": 10497,
      "wrapT": 10497
    }
  ],
  "scene": 0,
  "scenes": [
    {
      "name": "OSG_Scene",
      "nodes": [
        0
      ]
    }
  ],
  "textures": [
    {
      "sampler": 0,
      "source": 0
    },
    {
      "sampler": 0,
      "source": 1
    }
  ]
}

