{
  "accessors": [
    {
      "bufferView": 2,
      "componentType": 5126,
      "count": 120,
      "max": [
        9.9769048690795898,
        -4.3485860824584961,
        54.581932067871094
      ],
      "min": [
        -9.9769525527954102,
        -14.335296630859375,
        44.596580505371094
      ],
      "type": "VEC3"
    },
    {
      "bufferView": 2,
      "byteOffset": 1440,
      "componentType": 5126,
      "count": 120,
      "max": [
        0.97956156730651855,
        -0.16948582231998444,
        0.63194215297698975
      ],
      "min": [
        -0.97956240177154541,
        -0.61910390853881836,
        -0.015067732892930508
      ],
      "type": "VEC3"
    },
    {
      "bufferView": 3,
      "componentType": 5126,
      "count": 120,
      "max": [
        0.61810696125030518,
        0.98530435562133789,
        0.045499235391616821,
        1
      ],
      "min": [
        0.17078590393066406,
        -0.98530435562133789,
        -0.045495141297578812,
        1
      ],
      "type": "VEC4"
    },
    {
      "bufferView": 1,
      "componentType": 5126,
      "count": 120,
      "max": [
        0.49248999357223511,
        1.9689099788665771
      ],
      "min": [
        0.0075059998780488968,
        1.7550599575042725
      ],
      "type": "VEC2"
    },
    {
      "bufferView": 0,
      "componentType": 5125,
      "count": 576,
      "max": [
        119
      ],
      "min": [
        0
      ],
      "type": "SCALAR"
    },
    {
      "bufferView": 2,
      "byteOffset": 2880,
      "componentType": 5126,
      "count": 2697,
      "max": [
        26.600299835205078,
        53.207107543945312,
        59.808204650878906
      ],
      "min": [
        -26.600299835205078,
        -18.891000747680664,
        -1.231230726261856e-05
      ],
      "type": "VEC3"
    },
    {
      "bufferView": 2,
      "byteOffset": 35244,
      "componentType": 5126,
      "count": 2697,
      "max": [
        0.99969190359115601,
        0.99998277425765991,
        0.99969261884689331
      ],
      "min": [
        -0.99969178438186646,
        -0.99997299909591675,
        -1
      ],
      "type": "VEC3"
    },
    {
      "bufferView": 3,
      "byteOffset": 1920,
      "componentType": 5126,
      "count": 2697,
      "max": [
        1,
        0.99980378150939941,
        0.99997520446777344,
        1
      ],
      "min": [
        -1,
        -0.99980378150939941,
        -0.99997520446777344,
        1
      ],
      "type": "VEC4"
    },
    {
      "bufferView": 1,
      "byteOffset": 960,
      "componentType": 5126,
      "count": 2697,
      "max": [
        0.99482202529907227,
        0.9921879768371582
      ],
      "min": [
        0.005177999846637249,
        0.005394000094383955
      ],
      "type": "VEC2"
    },
    {
      "bufferView": 0,
      "byteOffset": 2304,
      "componentType": 5125,
      "count": 12690,
      "max": [
        2696
      ],
      "min": [
        0
      ],
      "type": "SCALAR"
    },
    {
      "bufferView": 2,
      "byteOffset": 67608,
      "componentType": 5126,
      "count": 166,
      "max": [
        7.7157492637634277,
        59.720027923583984,
        35.835205078125
      ],
      "min": [
        -7.7157716751098633,
        44.288528442382812,
        6.6779413223266602
      ],
      "type": "VEC3"
    },
    {
      "bufferView": 2,
      "byteOffset": 69600,
      "componentType": 5126,
      "count": 166,
      "max": [
        0.9984356164932251,
        0.99843639135360718,
        1.0000001192092896
      ],
      "min": [
        -0.9997296929359436,
        -0.99843573570251465,
        -1.0000001192092896
      ],
      "type": "VEC3"
    },
    {
      "bufferView": 3,
      "byteOffset": 45072,
      "componentType": 5126,
      "count": 166,
      "max": [
        0.99999982118606567,
        0.99999982118606567,
        0.19679476320743561,
        1
      ],
      "min": [
        -0.99999982118606567,
        -0.9999997615814209,
        -0.20641326904296875,
        -1
      ],
      "type": "VEC4"
    },
    {
      "bufferView": 1,
      "byteOffset": 22536,
      "componentType": 5126,
      "count": 166,
      "max": [
        0.98580700159072876,
        1.8401299715042114
      ],
      "min": [
        0.01423100009560585,
        0.004236999899148941
      ],
      "type": "VEC2"
    },
    {
      "bufferView": 0,
      "byteOffset": 53064,
      "componentType": 5125,
      "count": 528,
      "max": [
        165
      ],
      "min": [
        0
      ],
      "type": "SCALAR"
    },
    {
      "bufferView": 2,
      "byteOffset": 71592,
      "componentType": 5126,
      "count": 107,
      "max": [
        8.5674190521240234,
        60.642524719238281,
        37.023300170898438
      ],
      "min": [
        -8.5674314498901367,
        43.330123901367188,
        6.0622725486755371
      ],
      "type": "VEC3"
    },
    {
      "bufferView": 2,
      "byteOffset": 72876,
      "componentType": 5126,
      "count": 107,
      "max": [
        0.99913668632507324,
        0.99912405014038086,
        1.0000001192092896
      ],
      "min": [
        -0.99913632869720459,
        -0.99912470579147339,
        -1.0000001192092896
      ],
      "type": "VEC3"
    },
    {
      "bufferView": 3,
      "byteOffset": 47728,
      "componentType": 5126,
      "count": 107,
      "max": [
        1,
        1,
        0.2149154394865036,
        1
      ],
      "min": [
        -0.9999271035194397,
        -1,
        -0.21492171287536621,
        -1
      ],
      "type": "VEC4"
    },
    {
      "bufferView": 1,
      "byteOffset": 23864,
      "componentType": 5126,
      "count": 107,
      "max": [
        0.99790000915527344,
        0.9805070161819458
      ],
      "min": [
        0.0019389999797567725,
        0.033208001405000687
      ],
      "type": "VEC2"
    },
    {
      "bufferView": 0,
      "byteOffset": 55176,
      "componentType": 5125,
      "count": 576,
      "max": [
        106
      ],
      "min": [
        0
      ],
      "type": "SCALAR"
    },
    {
      "bufferView": 4,
      "componentType": 5126,
      "count": 1,
      "max": [
        1,
        0,
        0,
        0,
        0,
        1,
        0,
        0,
        0,
        0,
        1,
        0,
        0,
        0,
        0,
        1
      ],
      "min": [
        1,
        0,
        0,
        0,
        0,
        1,
        0,
        0,
        0,
        0,
        1,
        0,
        0,
        0,
        0,
        1
      ],
      "type": "MAT4"
    }
  ],
  "asset": {
    "extras": {
      "author": "akennedy007 (https://sketchfab.com/akennedy007)",
      "license": "CC-BY-4.0 (http://creativecommons.org/licenses/by/4.0/)",
      "source": "https://sketchfab.com/models/fa12810d672a44c0a373d89ff22d1880",
      "title": "3DS - Pokemon X Y - 004 Charmander"
    },
    "generator": "Sketchfab-3.28.5",
    "version": "2.0"
  },
  "bufferViews": [
    {
      "buffer": 0,
      "byteLength": 57480,
      "byteOffset": 0,
      "name": "floatBufferViews",
      "target": 34963
    },
    {
      "buffer": 0,
      "byteLength": 24720,
      "byteOffset": 57480,
      "byteStride": 8,
      "name": "floatBufferViews",
      "target": 34962
    },
    {
      "buffer": 0,
      "byteLength": 74160,
      "byteOffset": 82200,
      "byteStride": 12,
      "name": "floatBufferViews",
      "target": 34962
    },
    {
      "buffer": 0,
      "byteLength": 49440,
      "byteOffset": 156360,
      "byteStride": 16,
      "name": "floatBufferViews",
      "target": 34962
    },
    {
      "buffer": 0,
      "byteLength": 64,
      "byteOffset": 205800,
      "byteStride": 64,
      "name": "floatBufferViews"
    }
  ],
  "buffers": [
    {
      "byteLength": 205864,
      "uri": "scene.bin"
    }
  ],
  "extensionsUsed": [
    "KHR_materials_unlit"
  ],
  "images": [
    {
      "uri": "textures/Material_36_baseColor.png"
    },
    {
      "uri": "textures/Material_37_baseColor.png"
    },
    {
      "uri": "textures/Material_34_baseColor.png"
    },
    {
      "uri": "textures/Material_35_baseColor.png"
    }
  ],
  "materials": [
    {
      "doubleSided": true,
      "emissiveFactor": [
        0,
        0,
        0
      ],
      "extensions": {
        "KHR_materials_unlit": {}
      },
      "name": "Material_34",
      "pbrMetallicRoughness": {
        "baseColorFactor": [
          1,
          1,
          1,
          1
        ],
        "baseColorTexture": {
          "index": 2,
          "texCoord": 0
        },
        "metallicFactor": 0,
        "roughnessFactor": 1
      }
    },
    {
      "doubleSided": true,
      "emissiveFactor": [
        0,
        0,
        0
      ],
      "extensions": {
        "KHR_materials_unlit": {}
      },
      "name": "Material_35",
      "pbrMetallicRoughness": {
        "baseColorFactor": [
          1,
          1,
          1,
          1
        ],
        "baseColorTexture": {
          "index": 3,
          "texCoord": 0
        },
        "metallicFactor": 0,
        "roughnessFactor": 1
      }
    },
    {
      "alphaMode": "BLEND",
      "doubleSided": true,
      "emissiveFactor": [
        0,
        0,
        0
      ],
      "extensions": {
        "KHR_materials_unlit": {}
      },
      "name": "Material_36",
      "pbrMetallicRoughness": {
        "baseColorFactor": [
          1,
          1,
          1,
          0
        ],
        "baseColorTexture": {
          "index": 0,
          "texCoord": 0
        },
        "metallicFactor": 0,
        "roughnessFactor": 1
      }
    },
    {
      "alphaMode": "BLEND",
      "doubleSided": true,
      "emissiveFactor": [
        0,
        0,
        0
      ],
      "extensions": {
        "KHR_materials_unlit": {}
      },
      "name": "Material_37",
      "pbrMetallicRoughness": {
        "baseColorFactor": [
          1,
          1,
          1,
          0
        ],
        "baseColorTexture": {
          "index": 1,
          "texCoord": 0
        },
        "metallicFactor": 0,
        "roughnessFactor": 1
      }
    }
  ],
  "meshes": [
    {
      "primitives": [
        {
          "attributes": {
            "NORMAL": 1,
            "POSITION": 0,
            "TANGENT": 2,
            "TEXCOORD_0": 3
          },
          "indices": 4,
          "material": 0,
          "mode": 4
        }
      ]
    },
    {
      "primitives": [
        {
          "attributes": {
            "NORMAL": 6,
            "POSITION": 5,
            "TANGENT": 7,
            "TEXCOORD_0": 8
          },
          "indices": 9,
          "material": 1,
          "mode": 4
        }
      ]
    },
    {
      "primitives": [
        {
          "attributes": {
            "NORMAL": 11,
            "POSITION": 10,
            "TANGENT": 12,
            "TEXCOORD_0": 13
          },
          "indices": 14,
          "material": 2,
          "mode": 4
        }
      ]
    },
    {
      "primitives": [
        {
          "attributes": {
            "NORMAL": 16,
            "POSITION": 15,
            "TANGENT": 17,
            "TEXCOORD_0": 18
          },
          "indices": 19,
          "material": 3,
          "mode": 4
        }
      ]
    }
  ],
  "nodes": [
    {
      "children": [
        1
      ],
      "name": "RootNode (gltf orientation matrix)",
      "rotation": [
        -0.70710678118654746,
        -0,
        -0,
        0.70710678118654757
      ]
    },
    {
      "children": [
        2
      ],
      "name": "RootNode (model correction matrix)"
    },
    {
      "children": [
        3
      ],
      "matrix": [
        1,
        0,
        0,
        0,
        0,
        0,
        1,
        0,
        0,
        -1,
        0,
        0,
        0,
        0,
        0,
        1
      ],
      "name": "Charmander.FBX"
    },
    {
      "children": [
        4
      ],
      "name": "RootNode"
    },
    {
      "children": [
        5,
        6
      ],
      "name": ""
    },
    {
      "name": "_rootJoint"
    },
    {
      "children": [
        7,
        8,
        9,
        10
      ],
      "matrix": [
        1,
        1.7062994633384357e-32,
        0,
        0,
        -1.0448070880821313e-48,
        6.1232339957367673e-17,
        -1.0000000000000002,
        0,
        -1.7062994633384357e-32,
        1,
        6.123233995736766e-17,
        0,
        2.0328790734103208e-20,
        -1.7763568394002505e-15,
        1.4210854715202004e-14,
        1
      ],
      "name": ""
    },
    {
      "mesh": 0,
      "name": ""
    },
    {
      "mesh": 1,
      "name": ""
    },
    {
      "mesh": 2,
      "name": ""
    },
    {
      "mesh": 3,
      "name": ""
    }
  ],
  "samplers": [
    {
      "magFilter": 9729,
      "minFilter": 9987,
      "wrapS": 10497,
      "wrapT": 10497
    }
  ],
  "scene": 0,
  "scenes": [
    {
      "name": "OSG_Scene",
      "nodes": [
        0
      ]
    }
  ],
  "skins": [
    {
      "inverseBindMatrices": 20,
      "joints": [
        5
      ],
      "skeleton": 5
    }
  ],
  "textures": [
    {
      "sampler": 0,
      "source": 0
    },
    {
      "sampler": 0,
      "source": 1
    },
    {
      "sampler": 0,
      "source": 2
    },
    {
      "sampler": 0,
      "source": 3
    }
  ]
}

