{
  "accessors": [
    {
      "bufferView": 3,
      "componentType": 5126,
      "count": 3456,
      "max": [
        0.40836054086685181,
        1.1228431463241577,
        0.81401824951171875
      ],
      "min": [
        -0.40835773944854736,
        -0.013784687034785748,
        -0.52954405546188354
      ],
      "type": "VEC3"
    },
    {
      "bufferView": 3,
      "byteOffset": 41472,
      "componentType": 5126,
      "count": 3456,
      "max": [
        0.99986922740936279,
        0.99999940395355225,
        0.9997938871383667
      ],
      "min": [
        -0.99987912178039551,
        -0.9998927116394043,
        -0.99957644939422607
      ],
      "type": "VEC3"
    },
    {
      "bufferView": 4,
      "componentType": 5126,
      "count": 3456,
      "max": [
        1,
        0.97368627786636353,
        0.99929195642471313,
        1
      ],
      "min": [
        -0.99939775466918945,
        -0.99921858310699463,
        -0.99913227558135986,
        -1
      ],
      "type": "VEC4"
    },
    {
      "bufferView": 4,
      "byteOffset": 55296,
      "componentType": 5126,
      "count": 3456,
      "max": [
        1,
        1,
        1,
        1
      ],
      "min": [
        1,
        1,
        1,
        1
      ],
      "type": "VEC4"
    },
    {
      "bufferView": 2,
      "componentType": 5126,
      "count": 3456,
      "max": [
        0.98349040746688843,
        0.99306660890579224
      ],
      "min": [
        0.012651178985834122,
        0.026892352849245071
      ],
      "type": "VEC2"
    },
    {
      "bufferView": 1,
      "componentType": 5125,
      "count": 16812,
      "max": [
        3455
      ],
      "min": [
        0
      ],
      "type": "SCALAR"
    },
    {
      "bufferView": 3,
      "byteOffset": 82944,
      "componentType": 5126,
      "count": 74,
      "max": [
        0.32861328125,
        0.5642845630645752,
        0.72774934768676758
      ],
      "min": [
        -0.32861328125,
        0.40673828125,
        0.56591796875
      ],
      "type": "VEC3"
    },
    {
      "bufferView": 3,
      "byteOffset": 83832,
      "componentType": 5126,
      "count": 74,
      "max": [
        0.90758585929870605,
        0.45578396320343018,
        0.87081098556518555
      ],
      "min": [
        -0.90758585929870605,
        -0.45641997456550598,
        0.41246965527534485
      ],
      "type": "VEC3"
    },
    {
      "bufferView": 4,
      "byteOffset": 110592,
      "componentType": 5126,
      "count": 74,
      "max": [
        0.86998724937438965,
        0.20948505401611328,
        -0.45105859637260437,
        1
      ],
      "min": [
        -0.86998724937438965,
        0.12048587948083878,
        -0.9059593677520752,
        -1
      ],
      "type": "VEC4"
    },
    {
      "bufferView": 4,
      "byteOffset": 111776,
      "componentType": 5126,
      "count": 74,
      "max": [
        1,
        1,
        1,
        1
      ],
      "min": [
        1,
        1,
        1,
        1
      ],
      "type": "VEC4"
    },
    {
      "bufferView": 2,
      "byteOffset": 27648,
      "componentType": 5126,
      "count": 74,
      "max": [
        0.99914419651031494,
        0.83687758445739746
      ],
      "min": [
        0.0083075016736984253,
        0.20888233184814453
      ],
      "type": "VEC2"
    },
    {
      "bufferView": 1,
      "byteOffset": 67248,
      "componentType": 5125,
      "count": 312,
      "max": [
        73
      ],
      "min": [
        0
      ],
      "type": "SCALAR"
    },
    {
      "bufferView": 5,
      "componentType": 5126,
      "count": 18,
      "max": [
        1,
        0,
        0.00044609862379729748,
        0,
        0.00044586008880287409,
        1.0000001192092896,
        0.5216783881187439,
        0,
        0,
        2.0083593454955917e-08,
        1,
        0,
        0.30458801984786987,
        0,
        0.26526683568954468,
        1
      ],
      "min": [
        0.9999997615814209,
        -0.00044586011790670455,
        0,
        0,
        0,
        0.85314226150512695,
        0,
        0,
        -0.00044609856558963656,
        -0.52167832851409912,
        0.85314226150512695,
        0,
        -0.30458801984786987,
        -0.8780485987663269,
        -0.32209023833274841,
        1
      ],
      "type": "MAT4"
    },
    {
      "bufferView": 0,
      "componentType": 5123,
      "count": 3456,
      "max": [
        17,
        17,
        17,
        16
      ],
      "min": [
        2,
        2,
        2,
        2
      ],
      "type": "VEC4"
    },
    {
      "bufferView": 4,
      "byteOffset": 112960,
      "componentType": 5126,
      "count": 3456,
      "max": [
        1,
        0.4960269033908844,
        0.31703931093215942,
        0.11898420006036758
      ],
      "min": [
        0.33982029557228088,
        0,
        0,
        0
      ],
      "type": "VEC4"
    },
    {
      "bufferView": 0,
      "byteOffset": 27648,
      "componentType": 5123,
      "count": 74,
      "max": [
        12,
        12,
        12,
        12
      ],
      "min": [
        12,
        12,
        12,
        12
      ],
      "type": "VEC4"
    },
    {
      "bufferView": 4,
      "byteOffset": 168256,
      "componentType": 5126,
      "count": 74,
      "max": [
        1,
        0,
        0,
        0
      ],
      "min": [
        1,
        0,
        0,
        0
      ],
      "type": "VEC4"
    }
  ],
  "asset": {
    "extras": {
      "author": "OctavioLee (https://sketchfab.com/OctavioLee)",
      "license": "CC-BY-4.0 (http://creativecommons.org/licenses/by/4.0/)",
      "source": "https://sketchfab.com/3d-models/bulbasaur-4e4f53541857466fba7fec61933bb9a0",
      "title": "Bulbasaur"
    },
    "generator": "Sketchfab-6.4.0",
    "version": "2.0"
  },
  "bufferViews": [
    {
      "buffer": 0,
      "byteLength": 28240,
      "byteOffset": 0,
      "byteStride": 8,
      "name": "shortBufferViews",
      "target": 34962
    },
    {
      "buffer": 0,
      "byteLength": 68496,
      "byteOffset": 28240,
      "name": "floatBufferViews",
      "target": 34963
    },
    {
      "buffer": 0,
      "byteLength": 28240,
      "byteOffset": 96736,
      "byteStride": 8,
      "name": "floatBufferViews",
      "target": 34962
    },
    {
      "buffer": 0,
      "byteLength": 84720,
      "byteOffset": 124976,
      "byteStride": 12,
      "name": "floatBufferViews",
      "target": 34962
    },
    {
      "buffer": 0,
      "byteLength": 169440,
      "byteOffset": 209696,
      "byteStride": 16,
      "name": "floatBufferViews",
      "target": 34962
    },
    {
      "buffer": 0,
      "byteLength": 1152,
      "byteOffset": 379136,
      "byteStride": 64,
      "name": "floatBufferViews"
    }
  ],
  "buffers": [
    {
      "byteLength": 380288,
      "uri": "scene.bin"
    }
  ],
  "extensionsRequired": [
    "KHR_materials_pbrSpecularGlossiness"
  ],
  "extensionsUsed": [
    "KHR_materials_pbrSpecularGlossiness"
  ],
  "images": [
    {
      "uri": "textures/Bulbasaur_diffuse.png"
    },
    {
      "uri": "textures/Bulbasaur_specularGlossiness.png"
    },
    {
      "uri": "textures/Bulbasaur_normal.png"
    },
    {
      "uri": "textures/Bulbasaur_occlusion.png"
    },
    {
      "uri": "textures/material_diffuse.png"
    }
  ],
  "materials": [
    {
      "doubleSided": true,
      "extensions": {
        "KHR_materials_pbrSpecularGlossiness": {
          "diffuseFactor": [
            1,
            1,
            1,
            1
          ],
          "diffuseTexture": {
            "index": 0,
            "texCoord": 0
          },
          "glossinessFactor": 1,
          "specularFactor": [
            0,
            0,
            0
          ],
          "specularGlossinessTexture": {
            "index": 1,
            "texCoord": 0
          }
        }
      },
      "name": "Bulbasaur",
      "normalTexture": {
        "index": 2,
        "scale": 1,
        "texCoord": 0
      },
      "occlusionTexture": {
        "index": 3,
        "strength": 1,
        "texCoord": 0
      }
    },
    {
      "doubleSided": true,
      "emissiveFactor": [
        0,
        0,
        0
      ],
      "extensions": {
        "KHR_materials_pbrSpecularGlossiness": {
          "diffuseFactor": [
            1,
            1,
            1,
            1
          ],
          "diffuseTexture": {
            "index": 4,
            "texCoord": 0
          },
          "glossinessFactor": 0.68910984848484846,
          "specularFactor": [
            0.19573863636363636,
            0.19573863636363636,
            0.19573863636363636
          ]
        }
      },
      "name": "material"
    }
  ],
  "meshes": [
    {
      "primitives": [
        {
          "attributes": {
            "COLOR_0": 3,
            "JOINTS_0": 13,
            "NORMAL": 1,
            "POSITION": 0,
            "TANGENT": 2,
            "TEXCOORD_0": 4,
            "TEXCOORD_1": 4,
            "TEXCOORD_2": 4,
            "TEXCOORD_3": 4,
            "WEIGHTS_0": 14
          },
          "indices": 5,
          "material": 0,
          "mode": 4
        }
      ]
    },
    {
      "primitives": [
        {
          "attributes": {
            "COLOR_0": 9,
            "JOINTS_0": 15,
            "NORMAL": 7,
            "POSITION": 6,
            "TANGENT": 8,
            "TEXCOORD_0": 10,
            "WEIGHTS_0": 16
          },
          "indices": 11,
          "material": 1,
          "mode": 4
        }
      ]
    }
  ],
  "nodes": [
    {
      "children": [
        1
      ],
      "name": "RootNode (gltf orientation matrix)",
      "rotation": [
        -0.70710678118654746,
        -0,
        -0,
        0.70710678118654757
      ]
    },
    {
      "children": [
        2
      ],
      "name": "RootNode (model correction matrix)"
    },
    {
      "children": [
        3
      ],
      "name": "root"
    },
    {
      "children": [
        4
      ],
      "matrix": [
        1,
        0,
        0,
        0,
        0,
        2.2204460492503131e-16,
        1,
        0,
        0,
        -1,
        2.2204460492503131e-16,
        0,
        0,
        0,
        0,
        1
      ],
      "name": "GLTF_SceneRootNode"
    },
    {
      "children": [
        5
      ],
      "matrix": [
        19.073783874511719,
        0,
        0,
        0,
        0,
        19.073783874511719,
        0,
        0,
        0,
        0,
        19.073783874511719,
        0,
        0,
        0,
        0,
        1
      ],
      "name": "Armature_19"
    },
    {
      "children": [
        6,
        8,
        10,
        7,
        9
      ],
      "name": "GLTF_created_0"
    },
    {
      "children": [
        11
      ],
      "name": "GLTF_created_0_rootJoint"
    },
    {
      "name": "Body_17"
    },
    {
      "mesh": 0,
      "name": "",
      "skin": 0
    },
    {
      "name": "Eyes_18"
    },
    {
      "mesh": 1,
      "name": "",
      "skin": 0
    },
    {
      "children": [
        12
      ],
      "name": "root_16"
    },
    {
      "children": [
        13,
        16,
        23
      ],
      "name": "body_15",
      "translation": [
        6.6739519241734339e-17,
        0.30056807398796082,
        0.0037107169628143311
      ]
    },
    {
      "children": [
        14
      ],
      "name": "b_2",
      "translation": [
        -5.7694589486345649e-05,
        0.28257951140403748,
        -0.064390867948532104
      ]
    },
    {
      "children": [
        15
      ],
      "name": "b_scale_1",
      "rotation": [
        -0.27097764611244202,
        0.00015429507766384631,
        0.00015414801600854844,
        0.96258562803268433
      ],
      "scale": [
        1,
        0.99999994039535522,
        0.99999994039535522
      ],
      "translation": [
        0,
        -0.017819643020629883,
        -0.013364709913730621
      ]
    },
    {
      "name": "b_tip_0",
      "rotation": [
        0.27097758650779724,
        -8.6925786013658524e-11,
        0.00012088260700693354,
        0.96258562803268433
      ],
      "scale": [
        1,
        0.99999994039535522,
        0.99999994039535522
      ],
      "translation": [
        8.0035533756017685e-11,
        0.36655151844024658,
        -8.6790137743264495e-08
      ]
    },
    {
      "children": [
        17,
        19,
        21
      ],
      "name": "body_1_9",
      "translation": [
        2.6114548541997213e-17,
        0.11760947108268738,
        0.18176008760929108
      ]
    },
    {
      "children": [
        18
      ],
      "name": "leg_f_l_4",
      "translation": [
        0.30458801984786987,
        -0.1002432107925415,
        -0.025167807936668396
      ]
    },
    {
      "name": "feet_f_l_3",
      "translation": [
        0,
        -0.18527817726135254,
        0.011080607771873474
      ]
    },
    {
      "children": [
        20
      ],
      "name": "leg_f_r_6",
      "translation": [
        -0.30458801984786987,
        -0.1002432107925415,
        -0.025167807936668396
      ]
    },
    {
      "name": "feet_f_r_5",
      "translation": [
        0,
        -0.18527817726135254,
        0.011080607771873474
      ]
    },
    {
      "children": [
        22
      ],
      "name": "neck_8",
      "translation": [
        2.2790877283755044e-18,
        0.010264098644256592,
        0.066716656088829041
      ]
    },
    {
      "name": "head_7",
      "translation": [
        6.5439912620295125e-20,
        0.00029471516609191895,
        0.069902777671813965
      ]
    },
    {
      "children": [
        24,
        26
      ],
      "name": "body_2_14",
      "translation": [
        7.9134714841723052e-19,
        0.0035639107227325439,
        -0.22809109091758728
      ]
    },
    {
      "children": [
        25
      ],
      "name": "leg_b_l_11",
      "translation": [
        0.30458801984786987,
        -0.01866641640663147,
        0.067726284265518188
      ]
    },
    {
      "name": "feet_b_l_10",
      "translation": [
        0,
        -0.18527817726135254,
        0.011080607771873474
      ]
    },
    {
      "children": [
        27
      ],
      "name": "leg_b_r_13",
      "translation": [
        -0.30458801984786987,
        -0.01866641640663147,
        0.067726284265518188
      ]
    },
    {
      "name": "feet_b_r_12",
      "translation": [
        0,
        -0.18527817726135254,
        0.011080607771873474
      ]
    }
  ],
  "samplers": [
    {
      "magFilter": 9729,
      "minFilter": 9987,
      "wrapS": 10497,
      "wrapT": 10497
    }
  ],
  "scene": 0,
  "scenes": [
    {
      "name": "OSG_Scene",
      "nodes": [
        0
      ]
    }
  ],
  "skins": [
    {
      "inverseBindMatrices": 12,
      "joints": [
        6,
        11,
        12,
        13,
        14,
        15,
        16,
        17,
        18,
        19,
        20,
        21,
        22,
        23,
        24,
        25,
        26,
        27
      ],
      "skeleton": 6
    }
  ],
  "textures": [
    {
      "sampler": 0,
      "source": 0
    },
    {
      "sampler": 0,
      "source": 1
    },
    {
      "sampler": 0,
      "source": 2
    },
    {
      "sampler": 0,
      "source": 3
    },
    {
      "sampler": 0,
      "source": 4
    }
  ]
}

