{
  "accessors": [
    {
      "bufferView": 2,
      "componentType": 5126,
      "count": 4172,
      "max": [
        25.231803894042969,
        37.175495147705078,
        47.506088256835938
      ],
      "min": [
        -25.3568115234375,
        -23.290550231933594,
        -23.964565277099609
      ],
      "type": "VEC3"
    },
    {
      "bufferView": 2,
      "byteOffset": 50064,
      "componentType": 5126,
      "count": 4172,
      "max": [
        1,
        1,
        1
      ],
      "min": [
        -1,
        -1,
        -1
      ],
      "type": "VEC3"
    },
    {
      "bufferView": 1,
      "componentType": 5126,
      "count": 4172,
      "max": [
        0.95290648937225342,
        0.97999995946884155
      ],
      "min": [
        0.019999999552965164,
        0.019999999552965164
      ],
      "type": "VEC2"
    },
    {
      "bufferView": 0,
      "componentType": 5125,
      "count": 21366,
      "max": [
        4171
      ],
      "min": [
        0
      ],
      "type": "SCALAR"
    },
    {
      "bufferView": 2,
      "byteOffset": 100128,
      "componentType": 5126,
      "count": 1118,
      "max": [
        12.426339149475098,
        -12.997395515441895,
        24.623096466064453
      ],
      "min": [
        -12.217677116394043,
        -14.656344413757324,
        22.494876861572266
      ],
      "type": "VEC3"
    },
    {
      "bufferView": 2,
      "byteOffset": 113544,
      "componentType": 5126,
      "count": 1118,
      "max": [
        1,
        1,
        1
      ],
      "min": [
        -1,
        -1,
        -1
      ],
      "type": "VEC3"
    },
    {
      "bufferView": 1,
      "byteOffset": 33376,
      "componentType": 5126,
      "count": 1118,
      "max": [
        0.67412483692169189,
        0.4687962532043457
      ],
      "min": [
        0.63211077451705933,
        0.094862475991249084
      ],
      "type": "VEC2"
    },
    {
      "bufferView": 0,
      "byteOffset": 85464,
      "componentType": 5125,
      "count": 5760,
      "max": [
        1117
      ],
      "min": [
        0
      ],
      "type": "SCALAR"
    },
    {
      "bufferView": 2,
      "byteOffset": 126960,
      "componentType": 5126,
      "count": 1768,
      "max": [
        9.6644296646118164,
        1.738999605178833,
        51.260948181152344
      ],
      "min": [
        -9.9352407455444336,
        -19.445507049560547,
        24.801397323608398
      ],
      "type": "VEC3"
    },
    {
      "bufferView": 2,
      "byteOffset": 148176,
      "componentType": 5126,
      "count": 1768,
      "max": [
        1,
        1,
        1
      ],
      "min": [
        -1,
        -1,
        -1
      ],
      "type": "VEC3"
    },
    {
      "bufferView": 1,
      "byteOffset": 42320,
      "componentType": 5126,
      "count": 1768,
      "max": [
        0.926349937915802,
        0.68145632743835449
      ],
      "min": [
        0.020000001415610313,
        0.090458795428276062
      ],
      "type": "VEC2"
    },
    {
      "bufferView": 0,
      "byteOffset": 108504,
      "componentType": 5125,
      "count": 8184,
      "max": [
        1767
      ],
      "min": [
        0
      ],
      "type": "SCALAR"
    },
    {
      "bufferView": 2,
      "byteOffset": 169392,
      "componentType": 5126,
      "count": 20,
      "max": [
        -0.30651092529296875,
        26.667177200317383,
        3.8443331718444824
      ],
      "min": [
        -6.0863022804260254,
        19.498214721679688,
        -6.9811739921569824
      ],
      "type": "VEC3"
    },
    {
      "bufferView": 2,
      "byteOffset": 169632,
      "componentType": 5126,
      "count": 20,
      "max": [
        0.84773910045623779,
        0.53041368722915649,
        0.99932360649108887
      ],
      "min": [
        -0.84773921966552734,
        -0.79299300909042358,
        -0.99339741468429565
      ],
      "type": "VEC3"
    },
    {
      "bufferView": 1,
      "byteOffset": 56464,
      "componentType": 5126,
      "count": 20,
      "max": [
        0.92002302408218384,
        0.39045828580856323
      ],
      "min": [
        0.58367037773132324,
        0.037614699453115463
      ],
      "type": "VEC2"
    },
    {
      "bufferView": 0,
      "byteOffset": 141240,
      "componentType": 5125,
      "count": 30,
      "max": [
        19
      ],
      "min": [
        0
      ],
      "type": "SCALAR"
    },
    {
      "bufferView": 2,
      "byteOffset": 169872,
      "componentType": 5126,
      "count": 4512,
      "max": [
        25.841733932495117,
        37.554363250732422,
        51.870948791503906
      ],
      "min": [
        -25.965559005737305,
        -23.900550842285156,
        -24.574565887451172
      ],
      "type": "VEC3"
    },
    {
      "bufferView": 2,
      "byteOffset": 224016,
      "componentType": 5126,
      "count": 4512,
      "max": [
        1,
        1,
        1
      ],
      "min": [
        -1,
        -1,
        -1
      ],
      "type": "VEC3"
    },
    {
      "bufferView": 1,
      "byteOffset": 56624,
      "componentType": 5126,
      "count": 4512,
      "max": [
        1.0000002384185791,
        1
      ],
      "min": [
        0,
        -1.1920928955078125e-07
      ],
      "type": "VEC2"
    },
    {
      "bufferView": 0,
      "byteOffset": 141360,
      "componentType": 5125,
      "count": 23124,
      "max": [
        4511
      ],
      "min": [
        0
      ],
      "type": "SCALAR"
    }
  ],
  "asset": {
    "extras": {
      "author": "DeltaRayquaza (https://sketchfab.com/EoinMcSharry)",
      "license": "CC-BY-4.0 (http://creativecommons.org/licenses/by/4.0/)",
      "source": "https://sketchfab.com/3d-models/chonk-pikachu-9b6b10351c5744cd92a770f48c1f511f",
      "title": "chonk pikachu"
    },
    "generator": "Sketchfab-7.39.0",
    "version": "2.0"
  },
  "bufferViews": [
    {
      "buffer": 0,
      "byteLength": 233856,
      "byteOffset": 0,
      "name": "floatBufferViews",
      "target": 34963
    },
    {
      "buffer": 0,
      "byteLength": 92720,
      "byteOffset": 233856,
      "byteStride": 8,
      "name": "floatBufferViews",
      "target": 34962
    },
    {
      "buffer": 0,
      "byteLength": 278160,
      "byteOffset": 326576,
      "byteStride": 12,
      "name": "floatBufferViews",
      "target": 34962
    }
  ],
  "buffers": [
    {
      "byteLength": 604736,
      "uri": "scene.bin"
    }
  ],
  "extensionsUsed": [
    "KHR_materials_unlit"
  ],
  "images": [
    {
      "uri": "textures/08_-_Default_baseColor.png"
    }
  ],
  "materials": [
    {
      "doubleSided": true,
      "emissiveFactor": [
        0,
        0,
        0
      ],
      "extensions": {
        "KHR_materials_unlit": {}
      },
      "name": "01_-_Default",
      "pbrMetallicRoughness": {
        "baseColorFactor": [
          0.75686299999999995,
          0.94509799999999999,
          0,
          1
        ],
        "metallicFactor": 0,
        "roughnessFactor": 1
      }
    },
    {
      "doubleSided": true,
      "emissiveFactor": [
        0,
        0,
        0
      ],
      "extensions": {
        "KHR_materials_unlit": {}
      },
      "name": "03_-_Default",
      "pbrMetallicRoughness": {
        "baseColorFactor": [
          1,
          0,
          0,
          1
        ],
        "metallicFactor": 0,
        "roughnessFactor": 1
      }
    },
    {
      "doubleSided": true,
      "emissiveFactor": [
        0,
        0,
        0
      ],
      "extensions": {
        "KHR_materials_unlit": {}
      },
      "name": "02_-_Default",
      "pbrMetallicRoughness": {
        "baseColorFactor": [
          0.043137300000000003,
          0.043137300000000003,
          0.043137300000000003,
          1
        ],
        "metallicFactor": 0,
        "roughnessFactor": 1
      }
    },
    {
      "doubleSided": true,
      "emissiveFactor": [
        0,
        0,
        0
      ],
      "extensions": {
        "KHR_materials_unlit": {}
      },
      "name": "07_-_Default",
      "pbrMetallicRoughness": {
        "baseColorFactor": [
          0.13333300000000001,
          0.12548999999999999,
          0.0156863,
          1
        ],
        "metallicFactor": 0,
        "roughnessFactor": 1
      }
    },
    {
      "doubleSided": false,
      "emissiveFactor": [
        0,
        0,
        0
      ],
      "extensions": {
        "KHR_materials_unlit": {}
      },
      "name": "08_-_Default",
      "pbrMetallicRoughness": {
        "baseColorFactor": [
          0,
          0,
          0,
          1
        ],
        "baseColorTexture": {
          "index": 0,
          "texCoord": 0
        },
        "metallicFactor": 0,
        "roughnessFactor": 1
      }
    }
  ],
  "meshes": [
    {
      "name": "Sphere002_01 - Default_0",
      "primitives": [
        {
          "attributes": {
            "NORMAL": 1,
            "POSITION": 0,
            "TEXCOORD_0": 2
          },
          "indices": 3,
          "material": 0,
          "mode": 4
        }
      ]
    },
    {
      "name": "Sphere002_03 - Default_0",
      "primitives": [
        {
          "attributes": {
            "NORMAL": 5,
            "POSITION": 4,
            "TEXCOORD_0": 6
          },
          "indices": 7,
          "material": 1,
          "mode": 4
        }
      ]
    },
    {
      "name": "Sphere002_02 - Default_0",
      "primitives": [
        {
          "attributes": {
            "NORMAL": 9,
            "POSITION": 8,
            "TEXCOORD_0": 10
          },
          "indices": 11,
          "material": 2,
          "mode": 4
        }
      ]
    },
    {
      "name": "Sphere002_07 - Default_0",
      "primitives": [
        {
          "attributes": {
            "NORMAL": 13,
            "POSITION": 12,
            "TEXCOORD_0": 14
          },
          "indices": 15,
          "material": 3,
          "mode": 4
        }
      ]
    },
    {
      "name": "Sphere003_08 - Default_0",
      "primitives": [
        {
          "attributes": {
            "NORMAL": 17,
            "POSITION": 16,
            "TEXCOORD_0": 18
          },
          "indices": 19,
          "material": 4,
          "mode": 4
        }
      ]
    }
  ],
  "nodes": [
    {
      "children": [
        1
      ],
      "name": "RootNode (gltf orientation matrix)",
      "rotation": [
        -0.70710678118654746,
        -0,
        -0,
        0.70710678118654757
      ]
    },
    {
      "children": [
        2
      ],
      "name": "RootNode (model correction matrix)"
    },
    {
      "children": [
        3
      ],
      "matrix": [
        1,
        0,
        0,
        0,
        0,
        0,
        1,
        0,
        0,
        -1,
        0,
        0,
        0,
        0,
        0,
        1
      ],
      "name": "50ae20c243b24b1eacf973f79a55571e.fbx"
    },
    {
      "children": [
        4,
        9
      ],
      "name": "RootNode"
    },
    {
      "children": [
        5,
        6,
        7,
        8
      ],
      "matrix": [
        0.98268002271652222,
        0,
        0,
        0,
        0,
        1.9691203888414275e-16,
        -0.88681298494338989,
        0,
        0,
        0.69127100706100464,
        1.534929976589893e-16,
        0,
        -7.2866806983947754,
        31.217609405517578,
        15.45916748046875,
        1
      ],
      "name": "Sphere002"
    },
    {
      "mesh": 0,
      "name": "Sphere002_01 - Default_0"
    },
    {
      "mesh": 1,
      "name": "Sphere002_03 - Default_0"
    },
    {
      "mesh": 2,
      "name": "Sphere002_02 - Default_0"
    },
    {
      "mesh": 3,
      "name": "Sphere002_07 - Default_0"
    },
    {
      "children": [
        10
      ],
      "matrix": [
        0.98268002271652222,
        0,
        0,
        0,
        0,
        1.9691203888414275e-16,
        -0.88681298494338989,
        0,
        0,
        0.69127100706100464,
        1.534929976589893e-16,
        0,
        -7.2866806983947754,
        31.217609405517578,
        15.45916748046875,
        1
      ],
      "name": "Sphere003"
    },
    {
      "mesh": 4,
      "name": "Sphere003_08 - Default_0"
    }
  ],
  "samplers": [
    {
      "magFilter": 9729,
      "minFilter": 9987,
      "wrapS": 10497,
      "wrapT": 10497
    }
  ],
  "scene": 0,
  "scenes": [
    {
      "name": "OSG_Scene",
      "nodes": [
        0
      ]
    }
  ],
  "textures": [
    {
      "sampler": 0,
      "source": 0
    }
  ]
}

